<svg width="35" height="35" viewBox="0 0 35 35" fill="none" xmlns="http://www.w3.org/2000/svg">
<path d="M8.78718 23.1479V12.1801H24.6339L8.78718 23.1479Z" fill="#1D1D1D"/>
<path d="M28.8882 23.1479H13.2696L28.7716 12.1801C29.7609 16.4694 29.9218 18.8525 28.8882 23.1479Z" fill="#1D1D1D"/>
<path d="M7.38366 25.6792L27.4312 25.6792C27.4312 25.6792 22.1884 30.879 17.8464 31.9799C13.3344 33.1238 7.44193 33.8382 5.98498 30.8077C4.81942 28.3834 6.35408 26.3785 7.38366 25.6792Z" fill="#1D1D1D"/>
<path d="M7.38355 9.69795H27.2564C27.2564 9.69795 22.9262 4.09861 16.4032 2.71321C9.88028 1.3278 7.50011 2.1349 5.98488 4.5243C4.46965 6.9137 6.29569 8.82379 7.38355 9.69795Z" fill="#1D1D1D"/>
</svg>
